<svg height="3294" width="720" xmlns="http://www.w3.org/2000/svg">
<rect height="3294" fill="#555" width="720"></rect>
<text fill="#7f7" font-family="Courier New" font-size="12" xml:space="preserve">
<tspan x="10" y="26"></tspan>
<tspan x="10" y="42">&gt; npmdoc-pm2-web@0.0.1 test /home/travis/build/npmdoc/node-npmdoc-pm2-web</tspan>
<tspan x="10" y="58">&gt; (set -e; export PORT=$(utility2 shServerPortRandom); utility2 test test.js)</tspan>
<tspan x="10" y="74"></tspan>
<tspan x="10" y="90"></tspan>
<tspan x="10" y="106">[MODE_BUILD=npmTest] - 2017-04-03T17:00:10Z - npm-testing /home/travis/build/npmdoc/node-npmdoc-\</tspan>
<tspan x="10" y="122">pm2-web</tspan>
<tspan x="10" y="138"></tspan>
<tspan x="10" y="154"></tspan>
<tspan x="10" y="170">covering $ /home/travis/.nvm/versions/node/v6.10.1/bin/node /home/travis/build/npmdoc/node-npmdo\</tspan>
<tspan x="10" y="186">c-pm2-web/test.js</tspan>
<tspan x="10" y="202">merging file:///home/travis/build/npmdoc/node-npmdoc-pm2-web/tmp/build/test-report.json to test-\</tspan>
<tspan x="10" y="218">report</tspan>
<tspan x="10" y="234">&gt; server listening on http-port 63614</tspan>
<tspan x="10" y="250">created apidoc file:///home/travis/build/npmdoc/node-npmdoc-pm2-web/tmp/build/apidoc.html</tspan>
<tspan x="10" y="266"></tspan>
<tspan x="10" y="282"></tspan>
<tspan x="10" y="298">browserTest - created electron entry-page /home/travis/build/npmdoc/node-npmdoc-pm2-web/tmp/elec\</tspan>
<tspan x="10" y="314">tron.15b34c277b50.84bc1c4071ab6.html</tspan>
<tspan x="10" y="330"></tspan>
<tspan x="10" y="346">[node test-case 1 of 6 passed] - testCase_buildLib_default</tspan>
<tspan x="10" y="362">[node test-case 2 of 6 passed] - testCase_buildReadme_default</tspan>
<tspan x="10" y="378">[node test-case 3 of 6 passed] - testCase_buildTest_default</tspan>
<tspan x="10" y="394"></tspan>
<tspan x="10" y="410">browserTest - created electron entry-page /home/travis/build/npmdoc/node-npmdoc-pm2-web/tmp/elec\</tspan>
<tspan x="10" y="426">tron.15b34c277ee0.167a0be92be2f.html</tspan>
<tspan x="10" y="442"></tspan>
<tspan x="10" y="458">2017-04-03T17:00:11.649Z - info: Configuration Loaded default configuration from /home/travis/bu\</tspan>
<tspan x="10" y="474">ild/npmdoc/node-npmdoc-pm2-web/node_modules/pm2-web/server/components/../../config.json</tspan>
<tspan x="10" y="490">2017-04-03T17:00:11.650Z - info: Configuration Final configuration: {</tspan>
<tspan x="10" y="506">  "www": {</tspan>
<tspan x="10" y="522">    "host": "localhost",</tspan>
<tspan x="10" y="538">    "address": "0.0.0.0",</tspan>
<tspan x="10" y="554">    "port": 9000,</tspan>
<tspan x="10" y="570">    "authentication": {</tspan>
<tspan x="10" y="586">      "enabled": false,</tspan>
<tspan x="10" y="602">      "username": "a_user_name",</tspan>
<tspan x="10" y="618">      "password": "**** LA LA LA, NOTHING TO SEE HERE ****"</tspan>
<tspan x="10" y="634">    },</tspan>
<tspan x="10" y="650">    "ssl": {</tspan>
<tspan x="10" y="666">      "enabled": false,</tspan>
<tspan x="10" y="682">      "upgrade": true,</tspan>
<tspan x="10" y="698">      "port": 9001,</tspan>
<tspan x="10" y="714">      "passphrase": "**** LA LA LA, NOTHING TO SEE HERE ****",</tspan>
<tspan x="10" y="730">      "key": "/path/to/key/file",</tspan>
<tspan x="10" y="746">      "certificate": "/path/to/certificate/file"</tspan>
<tspan x="10" y="762">    }</tspan>
<tspan x="10" y="778">  },</tspan>
<tspan x="10" y="794">  "ws": {</tspan>
<tspan x="10" y="810">    "frequency": 500</tspan>
<tspan x="10" y="826">  },</tspan>
<tspan x="10" y="842">  "pm2": [</tspan>
<tspan x="10" y="858">    {</tspan>
<tspan x="10" y="874">      "host": "localhost",</tspan>
<tspan x="10" y="890">      "rpc": "/home/travis/.pm2/rpc.sock",</tspan>
<tspan x="10" y="906">      "events": "/home/travis/.pm2/pub.sock"</tspan>
<tspan x="10" y="922">    }</tspan>
<tspan x="10" y="938">  ],</tspan>
<tspan x="10" y="954">  "updateFrequency": 5000,</tspan>
<tspan x="10" y="970">  "forceHardReload": false,</tspan>
<tspan x="10" y="986">  "logs": {</tspan>
<tspan x="10" y="1002">    "max": 1000</tspan>
<tspan x="10" y="1018">  },</tspan>
<tspan x="10" y="1034">  "hostPurge": {</tspan>
<tspan x="10" y="1050">    "frequency": 10000,</tspan>
<tspan x="10" y="1066">    "cutoff": 60000</tspan>
<tspan x="10" y="1082">  },</tspan>
<tspan x="10" y="1098">  "graph": {</tspan>
<tspan x="10" y="1114">    "datapoints": 1000,</tspan>
<tspan x="10" y="1130">    "distribution": [</tspan>
<tspan x="10" y="1146">      40,</tspan>
<tspan x="10" y="1162">      25,</tspan>
<tspan x="10" y="1178">      10,</tspan>
<tspan x="10" y="1194">      10,</tspan>
<tspan x="10" y="1210">      5</tspan>
<tspan x="10" y="1226">    ]</tspan>
<tspan x="10" y="1242">  },</tspan>
<tspan x="10" y="1258">  "mdns": {</tspan>
<tspan x="10" y="1274">    "enabled": false,</tspan>
<tspan x="10" y="1290">    "name": "pm2"</tspan>
<tspan x="10" y="1306">  },</tspan>
<tspan x="10" y="1322">  "requiredPm2Version": "0.11.0"</tspan>
<tspan x="10" y="1338">}</tspan>
<tspan x="10" y="1354">(node:5127) DeprecationWarning: sys is deprecated. Use util instead.</tspan>
<tspan x="10" y="1370">2017-04-03T17:00:11.665Z - info: Express server listening on 0.0.0.0:9000</tspan>
<tspan x="10" y="1386">Xlib:  extension "RANDR" missing on display ":99.0".</tspan>
<tspan x="10" y="1402">Xlib:  extension "RANDR" missing on display ":99.0".</tspan>
<tspan x="10" y="1418">2017-04-03T17:00:11.812Z - info: PM2Listener localhost event socket reconnecting</tspan>
<tspan x="10" y="1434">2017-04-03T17:00:11.812Z - info: PM2Listener localhost event socket reconnecting</tspan>
<tspan x="10" y="1450">2017-04-03T17:00:11.963Z - info: PM2Listener localhost event socket reconnecting</tspan>
<tspan x="10" y="1466">2017-04-03T17:00:11.963Z - info: PM2Listener localhost event socket reconnecting</tspan>
<tspan x="10" y="1482">&gt; 2017-04-03T17:00:12.188Z - info: PM2Listener localhost event socket reconnecting</tspan>
<tspan x="10" y="1498">2017-04-03T17:00:12.189Z - info: PM2Listener localhost event socket reconnecting</tspan>
<tspan x="10" y="1514">server listening on http-port 47171</tspan>
<tspan x="10" y="1530">merging file:///home/travis/build/npmdoc/node-npmdoc-pm2-web/tmp/build/test-report.json to test-\</tspan>
<tspan x="10" y="1546">report</tspan>
<tspan x="10" y="1562">Xlib:  extension "RANDR" missing on display ":99.0".</tspan>
<tspan x="10" y="1578">[5150:0403/170012:WARNING:audio_manager.cc(314)] Multiple instances of AudioManager detected</tspan>
<tspan x="10" y="1594">[5150:0403/170012:WARNING:audio_manager.cc(275)] Multiple instances of AudioManager detected</tspan>
<tspan x="10" y="1610">2017-04-03T17:00:12.527Z - info: PM2Listener localhost event socket reconnecting</tspan>
<tspan x="10" y="1626">2017-04-03T17:00:12.528Z - info: PM2Listener localhost event socket reconnecting</tspan>
<tspan x="10" y="1642">merging file:///home/travis/build/npmdoc/node-npmdoc-pm2-web/tmp/build/test-report.json to test-\</tspan>
<tspan x="10" y="1658">report</tspan>
<tspan x="10" y="1674">[5188:0403/170012:ERROR:sandbox_linux.cc(343)] InitializeSandbox() called with multiple threads \</tspan>
<tspan x="10" y="1690">in process gpu-process. </tspan>
<tspan x="10" y="1706">Xlib:  extension "RANDR" missing on display ":99.0".</tspan>
<tspan x="10" y="1722">[5150:0403/170012:ERROR:browser_gpu_channel_host_factory.cc(131)] Failed to create channel.</tspan>
<tspan x="10" y="1738">[5154:0403/170012:WARNING:audio_manager.cc(314)] Multiple instances of AudioManager detected</tspan>
<tspan x="10" y="1754">[5154:0403/170012:WARNING:audio_manager.cc(275)] Multiple instances of AudioManager detected</tspan>
<tspan x="10" y="1770">[5213:0403/170012:ERROR:sandbox_linux.cc(343)] InitializeSandbox() called with multiple threads \</tspan>
<tspan x="10" y="1786">in process gpu-process. </tspan>
<tspan x="10" y="1802"></tspan>
<tspan x="10" y="1818">browserTest - opened url /home/travis/build/npmdoc/node-npmdoc-pm2-web/tmp/build/apidoc.html</tspan>
<tspan x="10" y="1834"></tspan>
<tspan x="10" y="1850">2017-04-03T17:00:13.035Z - info: PM2Listener localhost event socket reconnecting</tspan>
<tspan x="10" y="1866">2017-04-03T17:00:13.036Z - info: PM2Listener localhost event socket reconnecting</tspan>
<tspan x="10" y="1882"></tspan>
<tspan x="10" y="1898">browserTest - opened url http://127.0.0.1:63614?modeTest=1</tspan>
<tspan x="10" y="1914"></tspan>
<tspan x="10" y="1930">2017-04-03T17:00:13.797Z - info: PM2Listener localhost event socket reconnecting</tspan>
<tspan x="10" y="1946">2017-04-03T17:00:13.797Z - info: PM2Listener localhost event socket reconnecting</tspan>
<tspan x="10" y="1962">[5154:0403/170014:INFO:CONSOLE(245)] "----------|-----------|-----------|-----------|-----------\</tspan>
<tspan x="10" y="1978">|</tspan>
<tspan x="10" y="1994">File      |   % Stmts |% Branches |   % Funcs |   % Lines |</tspan>
<tspan x="10" y="2010">----------|-----------|-----------|-----------|-----------|</tspan>
<tspan x="10" y="2026">----------|-----------|-----------|-----------|-----------|</tspan>
<tspan x="10" y="2042">All files |       100 |       100 |       100 |       100 |</tspan>
<tspan x="10" y="2058">----------|-----------|-----------|-----------|-----------|</tspan>
<tspan x="10" y="2074">", source: file:///home/travis/build/npmdoc/node-npmdoc-pm2-web/tmp/electron.15b34c277ee0.167a0b\</tspan>
<tspan x="10" y="2090">e92be2f.html (245)</tspan>
<tspan x="10" y="2106">[5154:0403/170014:INFO:CONSOLE(245)] "created coverage file:///tmp/build/coverage.html/index.htm\</tspan>
<tspan x="10" y="2122">l", source: file:///home/travis/build/npmdoc/node-npmdoc-pm2-web/tmp/electron.15b34c277ee0.167a0\</tspan>
<tspan x="10" y="2138">be92be2f.html (245)</tspan>
<tspan x="10" y="2154">2017-04-03T17:00:14.940Z - info: PM2Listener localhost event socket reconnecting</tspan>
<tspan x="10" y="2170">2017-04-03T17:00:14.941Z - info: PM2Listener localhost event socket reconnecting</tspan>
<tspan x="10" y="2186">2017-04-03T17:00:16.654Z - info: PM2Listener localhost event socket reconnecting</tspan>
<tspan x="10" y="2202">2017-04-03T17:00:16.655Z - info: PM2Listener localhost event socket reconnecting</tspan>
<tspan x="10" y="2218">[node test-case 4 of 6 passed] - testCase_buildApp_default</tspan>
<tspan x="10" y="2234">2017-04-03T17:00:19.225Z - info: PM2Listener localhost event socket reconnecting</tspan>
<tspan x="10" y="2250">2017-04-03T17:00:19.225Z - info: PM2Listener localhost event socket reconnecting</tspan>
<tspan x="10" y="2266">2017-04-03T17:00:23.081Z - info: PM2Listener localhost event socket reconnecting</tspan>
<tspan x="10" y="2282">2017-04-03T17:00:23.082Z - info: PM2Listener localhost event socket reconnecting</tspan>
<tspan x="10" y="2298"></tspan>
<tspan x="10" y="2314">browserTest - created screenCapture file:///home/travis/build/npmdoc/node-npmdoc-pm2-web/tmp/bui\</tspan>
<tspan x="10" y="2330">ld/screenCapture.npmTest.browser._2Fhome_2Ftravis_2Fbuild_2Fnpmdoc_2Fnode-npmdoc-pm2-web_2Ftmp_2\</tspan>
<tspan x="10" y="2346">Fbuild_2Fapidoc.html.png</tspan>
<tspan x="10" y="2362"></tspan>
<tspan x="10" y="2378">browserTest - created screenCapture file:///home/travis/build/npmdoc/node-npmdoc-pm2-web/tmp/bui\</tspan>
<tspan x="10" y="2394">ld/screenCapture.npmTest.browser._2Fhome_2Ftravis_2Fbuild_2Fnpmdoc_2Fnode-npmdoc-pm2-web_2Ftmp_2\</tspan>
<tspan x="10" y="2410">Fbuild_2Fapidoc.html.html</tspan>
<tspan x="10" y="2426"></tspan>
<tspan x="10" y="2442">browserTest - exit-code 0 - /home/travis/build/npmdoc/node-npmdoc-pm2-web/tmp/build/apidoc.html</tspan>
<tspan x="10" y="2458"></tspan>
<tspan x="10" y="2474">[node test-case 5 of 6 passed] - testCase_buildApidoc_default</tspan>
<tspan x="10" y="2490"></tspan>
<tspan x="10" y="2506">browserTest - created screenCapture file:///home/travis/build/npmdoc/node-npmdoc-pm2-web/tmp/bui\</tspan>
<tspan x="10" y="2522">ld/screenCapture.npmTest.browser..png</tspan>
<tspan x="10" y="2538"></tspan>
<tspan x="10" y="2554">browserTest - created screenCapture file:///home/travis/build/npmdoc/node-npmdoc-pm2-web/tmp/bui\</tspan>
<tspan x="10" y="2570">ld/screenCapture.npmTest.browser..html</tspan>
<tspan x="10" y="2586"></tspan>
<tspan x="10" y="2602">browserTest - exit-code 0 - http://127.0.0.1:63614?modeTest=1</tspan>
<tspan x="10" y="2618"></tspan>
<tspan x="10" y="2634"></tspan>
<tspan x="10" y="2650">browserTest - merged coverage from /home/travis/build/npmdoc/node-npmdoc-pm2-web/tmp/coverage.np\</tspan>
<tspan x="10" y="2666">mTest.browser.%2F.json</tspan>
<tspan x="10" y="2682"></tspan>
<tspan x="10" y="2698"></tspan>
<tspan x="10" y="2714">browserTest - merging test-report from /home/travis/build/npmdoc/node-npmdoc-pm2-web/tmp/test-re\</tspan>
<tspan x="10" y="2730">port.npmTest.browser.%2F.json</tspan>
<tspan x="10" y="2746"></tspan>
<tspan x="10" y="2762">[node test-case 6 of 6 passed] - testCase_webpage_default</tspan>
<tspan x="10" y="2778">----------------------------|-----------|-----------|-----------|-----------|</tspan>
<tspan x="10" y="2794">File                        |   % Stmts |% Branches |   % Funcs |   % Lines |</tspan>
<tspan x="10" y="2810">----------------------------|-----------|-----------|-----------|-----------|</tspan>
<tspan x="10" y="2826">   node-npmdoc-pm2-web/     |       100 |       100 |       100 |       100 |</tspan>
<tspan x="10" y="2842">      example.js            |       100 |       100 |       100 |       100 |</tspan>
<tspan x="10" y="2858">      lib.npmdoc_pm2_web.js |       100 |       100 |       100 |       100 |</tspan>
<tspan x="10" y="2874">      test.js               |       100 |       100 |       100 |       100 |</tspan>
<tspan x="10" y="2890">----------------------------|-----------|-----------|-----------|-----------|</tspan>
<tspan x="10" y="2906">All files                   |       100 |       100 |       100 |       100 |</tspan>
<tspan x="10" y="2922">----------------------------|-----------|-----------|-----------|-----------|</tspan>
<tspan x="10" y="2938"></tspan>
<tspan x="10" y="2954">created coverage file:///home/travis/build/npmdoc/node-npmdoc-pm2-web/tmp/build/coverage.html/in\</tspan>
<tspan x="10" y="2970">dex.html</tspan>
<tspan x="10" y="2986">PM2Web Shutting down Express</tspan>
<tspan x="10" y="3002">PM2Web Shutting WebSocket</tspan>
<tspan x="10" y="3018">PM2Web Disconnecting from pm2-interface</tspan>
<tspan x="10" y="3034">merging file:///home/travis/build/npmdoc/node-npmdoc-pm2-web/tmp/build/test-report.json to test-\</tspan>
<tspan x="10" y="3050">report</tspan>
<tspan x="10" y="3066"></tspan>
<tspan x="10" y="3082">-------------------------------------------------------</tspan>
<tspan x="10" y="3098">| test-report - buildNpmdoc - node - linux v6.10.1 - 2017-04-03T16:59:55.134Z</tspan>
<tspan x="10" y="3114">|   26581 ms            0 failed        6 passed      |</tspan>
<tspan x="10" y="3130">-------------------------------------------------------</tspan>
<tspan x="10" y="3146"></tspan>
<tspan x="10" y="3162">created test-report file:///home/travis/build/npmdoc/node-npmdoc-pm2-web/tmp/build/test-report.h\</tspan>
<tspan x="10" y="3178">tml</tspan>
<tspan x="10" y="3194"></tspan>
<tspan x="10" y="3210"></tspan>
<tspan x="10" y="3226">npmTest - 0 failed tests</tspan>
<tspan x="10" y="3242"></tspan>
<tspan x="10" y="3258"></tspan>
<tspan x="10" y="3274">[MODE_BUILD=npmTest] - 2017-04-03T17:00:24Z - EXIT_CODE - 0</tspan>
</text>
</svg>
