<svg height="3246" width="720" xmlns="http://www.w3.org/2000/svg">
<rect height="3246" fill="#555" width="720"></rect>
<text fill="#7f7" font-family="Courier New" font-size="12" xml:space="preserve">
<tspan x="10" y="26">└─┬ pm2-web@2.1.3 </tspan>
<tspan x="10" y="42">  ├── ansi-html@0.0.7 </tspan>
<tspan x="10" y="58">  ├─┬ cjson@0.3.3 </tspan>
<tspan x="10" y="74">  │ └─┬ json-parse-helpfulerror@1.0.3 </tspan>
<tspan x="10" y="90">  │   └── jju@1.3.0 </tspan>
<tspan x="10" y="106">  ├─┬ express@3.21.2 </tspan>
<tspan x="10" y="122">  │ ├── basic-auth@1.0.4 </tspan>
<tspan x="10" y="138">  │ ├── commander@2.6.0 </tspan>
<tspan x="10" y="154">  │ ├─┬ connect@2.30.2 </tspan>
<tspan x="10" y="170">  │ │ ├── basic-auth-connect@1.0.0 </tspan>
<tspan x="10" y="186">  │ │ ├─┬ body-parser@1.13.3 </tspan>
<tspan x="10" y="202">  │ │ │ ├── iconv-lite@0.4.11 </tspan>
<tspan x="10" y="218">  │ │ │ └─┬ raw-body@2.1.7 </tspan>
<tspan x="10" y="234">  │ │ │   ├── bytes@2.4.0 </tspan>
<tspan x="10" y="250">  │ │ │   └── iconv-lite@0.4.13 </tspan>
<tspan x="10" y="266">  │ │ ├── bytes@2.1.0 </tspan>
<tspan x="10" y="282">  │ │ ├─┬ compression@1.5.2 </tspan>
<tspan x="10" y="298">  │ │ │ ├─┬ accepts@1.2.13 </tspan>
<tspan x="10" y="314">  │ │ │ │ └── negotiator@0.5.3 </tspan>
<tspan x="10" y="330">  │ │ │ └─┬ compressible@2.0.10 </tspan>
<tspan x="10" y="346">  │ │ │   └── mime-db@1.27.0 </tspan>
<tspan x="10" y="362">  │ │ ├── connect-timeout@1.6.2 </tspan>
<tspan x="10" y="378">  │ │ ├── cookie-parser@1.3.5 </tspan>
<tspan x="10" y="394">  │ │ ├─┬ csurf@1.8.3 </tspan>
<tspan x="10" y="410">  │ │ │ └─┬ csrf@3.0.6 </tspan>
<tspan x="10" y="426">  │ │ │   ├── rndm@1.2.0 </tspan>
<tspan x="10" y="442">  │ │ │   ├── tsscmp@1.0.5 </tspan>
<tspan x="10" y="458">  │ │ │   └─┬ uid-safe@2.1.4 </tspan>
<tspan x="10" y="474">  │ │ │     └── random-bytes@1.0.0 </tspan>
<tspan x="10" y="490">  │ │ ├─┬ errorhandler@1.4.3 </tspan>
<tspan x="10" y="506">  │ │ │ ├─┬ accepts@1.3.3 </tspan>
<tspan x="10" y="522">  │ │ │ │ └── negotiator@0.6.1 </tspan>
<tspan x="10" y="538">  │ │ │ └── escape-html@1.0.3 </tspan>
<tspan x="10" y="554">  │ │ ├─┬ express-session@1.11.3 </tspan>
<tspan x="10" y="570">  │ │ │ ├── crc@3.3.0 </tspan>
<tspan x="10" y="586">  │ │ │ └─┬ uid-safe@2.0.0 </tspan>
<tspan x="10" y="602">  │ │ │   └── base64-url@1.2.1 </tspan>
<tspan x="10" y="618">  │ │ ├─┬ finalhandler@0.4.0 </tspan>
<tspan x="10" y="634">  │ │ │ └── unpipe@1.0.0 </tspan>
<tspan x="10" y="650">  │ │ ├─┬ http-errors@1.3.1 </tspan>
<tspan x="10" y="666">  │ │ │ ├── inherits@2.0.3 </tspan>
<tspan x="10" y="682">  │ │ │ └── statuses@1.3.1 </tspan>
<tspan x="10" y="698">  │ │ ├── morgan@1.6.1 </tspan>
<tspan x="10" y="714">  │ │ ├─┬ multiparty@3.3.2 </tspan>
<tspan x="10" y="730">  │ │ │ ├─┬ readable-stream@1.1.14 </tspan>
<tspan x="10" y="746">  │ │ │ │ ├── core-util-is@1.0.2 </tspan>
<tspan x="10" y="762">  │ │ │ │ ├── isarray@0.0.1 </tspan>
<tspan x="10" y="778">  │ │ │ │ └── string_decoder@0.10.31 </tspan>
<tspan x="10" y="794">  │ │ │ └── stream-counter@0.2.0 </tspan>
<tspan x="10" y="810">  │ │ ├── on-headers@1.0.1 </tspan>
<tspan x="10" y="826">  │ │ ├── pause@0.1.0 </tspan>
<tspan x="10" y="842">  │ │ ├── qs@4.0.0 </tspan>
<tspan x="10" y="858">  │ │ ├─┬ response-time@2.3.2 </tspan>
<tspan x="10" y="874">  │ │ │ └── depd@1.1.0 </tspan>
<tspan x="10" y="890">  │ │ ├─┬ serve-favicon@2.3.2 </tspan>
<tspan x="10" y="906">  │ │ │ └── ms@0.7.2 </tspan>
<tspan x="10" y="922">  │ │ ├─┬ serve-index@1.7.3 </tspan>
<tspan x="10" y="938">  │ │ │ ├── batch@0.5.3 </tspan>
<tspan x="10" y="954">  │ │ │ ├── escape-html@1.0.3 </tspan>
<tspan x="10" y="970">  │ │ │ └── mime-types@2.1.15 </tspan>
<tspan x="10" y="986">  │ │ ├─┬ serve-static@1.10.3 </tspan>
<tspan x="10" y="1002">  │ │ │ ├── escape-html@1.0.3 </tspan>
<tspan x="10" y="1018">  │ │ │ └─┬ send@0.13.2 </tspan>
<tspan x="10" y="1034">  │ │ │   ├── depd@1.1.0 </tspan>
<tspan x="10" y="1050">  │ │ │   ├── destroy@1.0.4 </tspan>
<tspan x="10" y="1066">  │ │ │   └── statuses@1.2.1 </tspan>
<tspan x="10" y="1082">  │ │ ├─┬ type-is@1.6.15 </tspan>
<tspan x="10" y="1098">  │ │ │ └── media-typer@0.3.0 </tspan>
<tspan x="10" y="1114">  │ │ └── vhost@3.0.2 </tspan>
<tspan x="10" y="1130">  │ ├── content-disposition@0.5.0 </tspan>
<tspan x="10" y="1146">  │ ├── content-type@1.0.2 </tspan>
<tspan x="10" y="1162">  │ ├── cookie@0.1.3 </tspan>
<tspan x="10" y="1178">  │ ├── cookie-signature@1.0.6 </tspan>
<tspan x="10" y="1194">  │ ├─┬ debug@2.2.0 </tspan>
<tspan x="10" y="1210">  │ │ └── ms@0.7.1 </tspan>
<tspan x="10" y="1226">  │ ├── depd@1.0.1 </tspan>
<tspan x="10" y="1242">  │ ├── escape-html@1.0.2 </tspan>
<tspan x="10" y="1258">  │ ├── etag@1.7.0 </tspan>
<tspan x="10" y="1274">  │ ├── fresh@0.3.0 </tspan>
<tspan x="10" y="1290">  │ ├── merge-descriptors@1.0.0 </tspan>
<tspan x="10" y="1306">  │ ├── methods@1.1.2 </tspan>
<tspan x="10" y="1322">  │ ├─┬ mkdirp@0.5.1 </tspan>
<tspan x="10" y="1338">  │ │ └── minimist@0.0.8 </tspan>
<tspan x="10" y="1354">  │ ├── parseurl@1.3.1 </tspan>
<tspan x="10" y="1370">  │ ├─┬ proxy-addr@1.0.10 </tspan>
<tspan x="10" y="1386">  │ │ ├── forwarded@0.1.0 </tspan>
<tspan x="10" y="1402">  │ │ └── ipaddr.js@1.0.5 </tspan>
<tspan x="10" y="1418">  │ ├── range-parser@1.0.3 </tspan>
<tspan x="10" y="1434">  │ ├─┬ send@0.13.0 </tspan>
<tspan x="10" y="1450">  │ │ ├── destroy@1.0.3 </tspan>
<tspan x="10" y="1466">  │ │ ├── mime@1.3.4 </tspan>
<tspan x="10" y="1482">  │ │ ├─┬ on-finished@2.3.0 </tspan>
<tspan x="10" y="1498">  │ │ │ └── ee-first@1.1.1 </tspan>
<tspan x="10" y="1514">  │ │ └── statuses@1.2.1 </tspan>
<tspan x="10" y="1530">  │ ├── utils-merge@1.0.0 </tspan>
<tspan x="10" y="1546">  │ └── vary@1.0.1 </tspan>
<tspan x="10" y="1562">  ├── html-entities@1.2.0 </tspan>
<tspan x="10" y="1578">  ├─┬ jade@1.11.0 </tspan>
<tspan x="10" y="1594">  │ ├── character-parser@1.2.1 </tspan>
<tspan x="10" y="1610">  │ ├─┬ clean-css@3.4.25 </tspan>
<tspan x="10" y="1626">  │ │ ├─┬ commander@2.8.1 </tspan>
<tspan x="10" y="1642">  │ │ │ └── graceful-readlink@1.0.1 </tspan>
<tspan x="10" y="1658">  │ │ └─┬ source-map@0.4.4 </tspan>
<tspan x="10" y="1674">  │ │   └── amdefine@1.0.1 </tspan>
<tspan x="10" y="1690">  │ ├─┬ constantinople@3.0.2 </tspan>
<tspan x="10" y="1706">  │ │ └── acorn@2.7.0 </tspan>
<tspan x="10" y="1722">  │ ├─┬ jstransformer@0.0.2 </tspan>
<tspan x="10" y="1738">  │ │ ├── is-promise@2.1.0 </tspan>
<tspan x="10" y="1754">  │ │ └─┬ promise@6.1.0 </tspan>
<tspan x="10" y="1770">  │ │   └── asap@1.0.0 </tspan>
<tspan x="10" y="1786">  │ ├─┬ transformers@2.1.0 </tspan>
<tspan x="10" y="1802">  │ │ ├─┬ css@1.0.8 </tspan>
<tspan x="10" y="1818">  │ │ │ ├── css-parse@1.0.4 </tspan>
<tspan x="10" y="1834">  │ │ │ └── css-stringify@1.0.5 </tspan>
<tspan x="10" y="1850">  │ │ ├─┬ promise@2.0.0 </tspan>
<tspan x="10" y="1866">  │ │ │ └── is-promise@1.0.1 </tspan>
<tspan x="10" y="1882">  │ │ └─┬ uglify-js@2.2.5 </tspan>
<tspan x="10" y="1898">  │ │   ├─┬ optimist@0.3.7 </tspan>
<tspan x="10" y="1914">  │ │   │ └── wordwrap@0.0.3 </tspan>
<tspan x="10" y="1930">  │ │   └── source-map@0.1.43 </tspan>
<tspan x="10" y="1946">  │ ├─┬ uglify-js@2.8.21 </tspan>
<tspan x="10" y="1962">  │ │ ├── source-map@0.5.6 </tspan>
<tspan x="10" y="1978">  │ │ ├── uglify-to-browserify@1.0.2 </tspan>
<tspan x="10" y="1994">  │ │ └─┬ yargs@3.10.0 </tspan>
<tspan x="10" y="2010">  │ │   ├── camelcase@1.2.1 </tspan>
<tspan x="10" y="2026">  │ │   ├─┬ cliui@2.1.0 </tspan>
<tspan x="10" y="2042">  │ │   │ ├─┬ center-align@0.1.3 </tspan>
<tspan x="10" y="2058">  │ │   │ │ ├─┬ align-text@0.1.4 </tspan>
<tspan x="10" y="2074">  │ │   │ │ │ ├─┬ kind-of@3.1.0 </tspan>
<tspan x="10" y="2090">  │ │   │ │ │ │ └── is-buffer@1.1.5 </tspan>
<tspan x="10" y="2106">  │ │   │ │ │ ├── longest@1.0.1 </tspan>
<tspan x="10" y="2122">  │ │   │ │ │ └── repeat-string@1.6.1 </tspan>
<tspan x="10" y="2138">  │ │   │ │ └── lazy-cache@1.0.4 </tspan>
<tspan x="10" y="2154">  │ │   │ ├── right-align@0.1.3 </tspan>
<tspan x="10" y="2170">  │ │   │ └── wordwrap@0.0.2 </tspan>
<tspan x="10" y="2186">  │ │   ├── decamelize@1.2.0 </tspan>
<tspan x="10" y="2202">  │ │   └── window-size@0.1.0 </tspan>
<tspan x="10" y="2218">  │ ├── void-elements@2.0.1 </tspan>
<tspan x="10" y="2234">  │ └─┬ with@4.0.3 </tspan>
<tspan x="10" y="2250">  │   ├── acorn@1.2.2 </tspan>
<tspan x="10" y="2266">  │   └── acorn-globals@1.0.9 </tspan>
<tspan x="10" y="2282">  ├─┬ method-override@2.3.8 </tspan>
<tspan x="10" y="2298">  │ ├─┬ debug@2.6.3 </tspan>
<tspan x="10" y="2314">  │ │ └── ms@0.7.2 </tspan>
<tspan x="10" y="2330">  │ └── vary@1.1.1 </tspan>
<tspan x="10" y="2346">  ├── minimist@1.2.0 </tspan>
<tspan x="10" y="2362">  ├── moment@2.18.1 </tspan>
<tspan x="10" y="2378">  ├── mustache@0.8.2 </tspan>
<tspan x="10" y="2394">  ├─┬ pm2-interface@2.0.4 </tspan>
<tspan x="10" y="2410">  │ ├─┬ pm2-axon@2.0.7 </tspan>
<tspan x="10" y="2426">  │ │ ├── amp@0.3.1 </tspan>
<tspan x="10" y="2442">  │ │ ├── amp-message@0.1.2 </tspan>
<tspan x="10" y="2458">  │ │ ├── configurable@0.0.1 </tspan>
<tspan x="10" y="2474">  │ │ ├─┬ debug@2.0.0 </tspan>
<tspan x="10" y="2490">  │ │ │ └── ms@0.6.2 </tspan>
<tspan x="10" y="2506">  │ │ └── escape-regexp@0.0.1 </tspan>
<tspan x="10" y="2522">  │ └─┬ pm2-axon-rpc@0.3.6 </tspan>
<tspan x="10" y="2538">  │   ├─┬ commander@1.0.5 </tspan>
<tspan x="10" y="2554">  │   │ └── keypress@0.1.0 </tspan>
<tspan x="10" y="2570">  │   └── json-stringify-safe@5.0.1 </tspan>
<tspan x="10" y="2586">  ├─┬ pwuid@1.1.1 </tspan>
<tspan x="10" y="2602">  │ ├── bindings@1.2.1 </tspan>
<tspan x="10" y="2618">  │ └── nan@2.5.1 </tspan>
<tspan x="10" y="2634">  ├── semver@3.0.1 </tspan>
<tspan x="10" y="2650">  ├── underscore.string@2.4.0 </tspan>
<tspan x="10" y="2666">  ├─┬ wantsit@1.5.0 </tspan>
<tspan x="10" y="2682">  │ ├── check-types@1.4.0 </tspan>
<tspan x="10" y="2698">  │ └── toarray@0.0.1 </tspan>
<tspan x="10" y="2714">  ├── wildemitter@1.2.0 </tspan>
<tspan x="10" y="2730">  ├─┬ winston@0.7.3 </tspan>
<tspan x="10" y="2746">  │ ├── async@0.2.10 </tspan>
<tspan x="10" y="2762">  │ ├── colors@0.6.2 </tspan>
<tspan x="10" y="2778">  │ ├── cycle@1.0.3 </tspan>
<tspan x="10" y="2794">  │ ├── eyes@0.1.8 </tspan>
<tspan x="10" y="2810">  │ ├── pkginfo@0.3.1 </tspan>
<tspan x="10" y="2826">  │ ├─┬ request@2.16.6 </tspan>
<tspan x="10" y="2842">  │ │ ├── aws-sign@0.2.0 </tspan>
<tspan x="10" y="2858">  │ │ ├── cookie-jar@0.2.0 </tspan>
<tspan x="10" y="2874">  │ │ ├── forever-agent@0.2.0 </tspan>
<tspan x="10" y="2890">  │ │ ├─┬ form-data@0.0.10 </tspan>
<tspan x="10" y="2906">  │ │ │ ├─┬ combined-stream@0.0.7 </tspan>
<tspan x="10" y="2922">  │ │ │ │ └── delayed-stream@0.0.5 </tspan>
<tspan x="10" y="2938">  │ │ │ └── mime@1.2.11 </tspan>
<tspan x="10" y="2954">  │ │ ├─┬ hawk@0.10.2 </tspan>
<tspan x="10" y="2970">  │ │ │ ├── boom@0.3.8 </tspan>
<tspan x="10" y="2986">  │ │ │ ├── cryptiles@0.1.3 </tspan>
<tspan x="10" y="3002">  │ │ │ ├── hoek@0.7.6 </tspan>
<tspan x="10" y="3018">  │ │ │ └── sntp@0.1.4 </tspan>
<tspan x="10" y="3034">  │ │ ├── json-stringify-safe@3.0.0 </tspan>
<tspan x="10" y="3050">  │ │ ├── mime@1.2.11 </tspan>
<tspan x="10" y="3066">  │ │ ├── node-uuid@1.4.8 </tspan>
<tspan x="10" y="3082">  │ │ ├── oauth-sign@0.2.0 </tspan>
<tspan x="10" y="3098">  │ │ ├── qs@0.5.6 </tspan>
<tspan x="10" y="3114">  │ │ └── tunnel-agent@0.2.0 </tspan>
<tspan x="10" y="3130">  │ └── stack-trace@0.0.9 </tspan>
<tspan x="10" y="3146">  ├─┬ ws@0.4.32 </tspan>
<tspan x="10" y="3162">  │ ├── commander@2.1.0 </tspan>
<tspan x="10" y="3178">  │ ├── nan@1.0.0 </tspan>
<tspan x="10" y="3194">  │ ├── options@0.0.6 </tspan>
<tspan x="10" y="3210">  │ └── tinycolor@0.0.1 </tspan>
<tspan x="10" y="3226">  └── zepto-browserify@1.0.0</tspan>
</text>
</svg>
