<svg height="3310" width="720" xmlns="http://www.w3.org/2000/svg">
<rect height="3310" fill="#555" width="720"></rect>
<text fill="#7f7" font-family="Courier New" font-size="12" xml:space="preserve">
<tspan x="10" y="26"></tspan>
<tspan x="10" y="42">&gt; npmdoc-pm2-web@0.0.1 test /home/travis/build/npmdoc/node-npmdoc-pm2-web</tspan>
<tspan x="10" y="58">&gt; (set -e; export PORT=$(utility2 shServerPortRandom); utility2 test test.js)</tspan>
<tspan x="10" y="74"></tspan>
<tspan x="10" y="90"></tspan>
<tspan x="10" y="106">[MODE_BUILD=npmTest] - 2017-04-03T17:01:50Z - npm-testing /home/travis/build/npmdoc/node-npmdoc-\</tspan>
<tspan x="10" y="122">pm2-web</tspan>
<tspan x="10" y="138"></tspan>
<tspan x="10" y="154"></tspan>
<tspan x="10" y="170">covering $ /home/travis/.nvm/versions/node/v6.10.1/bin/node /home/travis/build/npmdoc/node-npmdo\</tspan>
<tspan x="10" y="186">c-pm2-web/test.js</tspan>
<tspan x="10" y="202">merging file:///home/travis/build/npmdoc/node-npmdoc-pm2-web/tmp/build/test-report.json to test-\</tspan>
<tspan x="10" y="218">report</tspan>
<tspan x="10" y="234">&gt; server listening on http-port 49928</tspan>
<tspan x="10" y="250">created apidoc file:///home/travis/build/npmdoc/node-npmdoc-pm2-web/tmp/build/apidoc.html</tspan>
<tspan x="10" y="266"></tspan>
<tspan x="10" y="282"></tspan>
<tspan x="10" y="298">browserTest - created electron entry-page /home/travis/build/npmdoc/node-npmdoc-pm2-web/tmp/elec\</tspan>
<tspan x="10" y="314">tron.15b34c3fd460.cb0aeb45a852e.html</tspan>
<tspan x="10" y="330"></tspan>
<tspan x="10" y="346">[node test-case 1 of 6 passed] - testCase_buildLib_default</tspan>
<tspan x="10" y="362">[node test-case 2 of 6 passed] - testCase_buildReadme_default</tspan>
<tspan x="10" y="378">[node test-case 3 of 6 passed] - testCase_buildTest_default</tspan>
<tspan x="10" y="394"></tspan>
<tspan x="10" y="410">browserTest - created electron entry-page /home/travis/build/npmdoc/node-npmdoc-pm2-web/tmp/elec\</tspan>
<tspan x="10" y="426">tron.15b34c3fd7c0.ce573fd67d15c.html</tspan>
<tspan x="10" y="442"></tspan>
<tspan x="10" y="458">2017-04-03T17:01:51.368Z - info: Configuration Loaded default configuration from /home/travis/bu\</tspan>
<tspan x="10" y="474">ild/npmdoc/node-npmdoc-pm2-web/node_modules/pm2-web/server/components/../../config.json</tspan>
<tspan x="10" y="490">2017-04-03T17:01:51.370Z - info: Configuration Final configuration: {</tspan>
<tspan x="10" y="506">  "www": {</tspan>
<tspan x="10" y="522">    "host": "localhost",</tspan>
<tspan x="10" y="538">    "address": "0.0.0.0",</tspan>
<tspan x="10" y="554">    "port": 9000,</tspan>
<tspan x="10" y="570">    "authentication": {</tspan>
<tspan x="10" y="586">      "enabled": false,</tspan>
<tspan x="10" y="602">      "username": "a_user_name",</tspan>
<tspan x="10" y="618">      "password": "**** LA LA LA, NOTHING TO SEE HERE ****"</tspan>
<tspan x="10" y="634">    },</tspan>
<tspan x="10" y="650">    "ssl": {</tspan>
<tspan x="10" y="666">      "enabled": false,</tspan>
<tspan x="10" y="682">      "upgrade": true,</tspan>
<tspan x="10" y="698">      "port": 9001,</tspan>
<tspan x="10" y="714">      "passphrase": "**** LA LA LA, NOTHING TO SEE HERE ****",</tspan>
<tspan x="10" y="730">      "key": "/path/to/key/file",</tspan>
<tspan x="10" y="746">      "certificate": "/path/to/certificate/file"</tspan>
<tspan x="10" y="762">    }</tspan>
<tspan x="10" y="778">  },</tspan>
<tspan x="10" y="794">  "ws": {</tspan>
<tspan x="10" y="810">    "frequency": 500</tspan>
<tspan x="10" y="826">  },</tspan>
<tspan x="10" y="842">  "pm2": [</tspan>
<tspan x="10" y="858">    {</tspan>
<tspan x="10" y="874">      "host": "localhost",</tspan>
<tspan x="10" y="890">      "rpc": "/home/travis/.pm2/rpc.sock",</tspan>
<tspan x="10" y="906">      "events": "/home/travis/.pm2/pub.sock"</tspan>
<tspan x="10" y="922">    }</tspan>
<tspan x="10" y="938">  ],</tspan>
<tspan x="10" y="954">  "updateFrequency": 5000,</tspan>
<tspan x="10" y="970">  "forceHardReload": false,</tspan>
<tspan x="10" y="986">  "logs": {</tspan>
<tspan x="10" y="1002">    "max": 1000</tspan>
<tspan x="10" y="1018">  },</tspan>
<tspan x="10" y="1034">  "hostPurge": {</tspan>
<tspan x="10" y="1050">    "frequency": 10000,</tspan>
<tspan x="10" y="1066">    "cutoff": 60000</tspan>
<tspan x="10" y="1082">  },</tspan>
<tspan x="10" y="1098">  "graph": {</tspan>
<tspan x="10" y="1114">    "datapoints": 1000,</tspan>
<tspan x="10" y="1130">    "distribution": [</tspan>
<tspan x="10" y="1146">      40,</tspan>
<tspan x="10" y="1162">      25,</tspan>
<tspan x="10" y="1178">      10,</tspan>
<tspan x="10" y="1194">      10,</tspan>
<tspan x="10" y="1210">      5</tspan>
<tspan x="10" y="1226">    ]</tspan>
<tspan x="10" y="1242">  },</tspan>
<tspan x="10" y="1258">  "mdns": {</tspan>
<tspan x="10" y="1274">    "enabled": false,</tspan>
<tspan x="10" y="1290">    "name": "pm2"</tspan>
<tspan x="10" y="1306">  },</tspan>
<tspan x="10" y="1322">  "requiredPm2Version": "0.11.0"</tspan>
<tspan x="10" y="1338">}</tspan>
<tspan x="10" y="1354">(node:8061) DeprecationWarning: sys is deprecated. Use util instead.</tspan>
<tspan x="10" y="1370">2017-04-03T17:01:51.390Z - info: Express server listening on 0.0.0.0:9000</tspan>
<tspan x="10" y="1386">Xlib:  extension "RANDR" missing on display ":99.0".</tspan>
<tspan x="10" y="1402">2017-04-03T17:01:51.504Z - info: PM2Listener localhost event socket reconnecting</tspan>
<tspan x="10" y="1418">2017-04-03T17:01:51.505Z - info: PM2Listener localhost event socket reconnecting</tspan>
<tspan x="10" y="1434">Xlib:  extension "RANDR" missing on display ":99.0".</tspan>
<tspan x="10" y="1450">2017-04-03T17:01:51.656Z - info: PM2Listener localhost event socket reconnecting</tspan>
<tspan x="10" y="1466">2017-04-03T17:01:51.656Z - info: PM2Listener localhost event socket reconnecting</tspan>
<tspan x="10" y="1482">merging file:///home/travis/build/npmdoc/node-npmdoc-pm2-web/tmp/build/test-report.json to test-\</tspan>
<tspan x="10" y="1498">report</tspan>
<tspan x="10" y="1514">Xlib:  extension "RANDR" missing on display ":99.0".</tspan>
<tspan x="10" y="1530">2017-04-03T17:01:51.882Z - info: PM2Listener localhost event socket reconnecting</tspan>
<tspan x="10" y="1546">2017-04-03T17:01:51.883Z - info: PM2Listener localhost event socket reconnecting</tspan>
<tspan x="10" y="1562">[8083:0403/170151:WARNING:audio_manager.cc(314)] Multiple instances of AudioManager detected</tspan>
<tspan x="10" y="1578">[8083:0403/170151:WARNING:audio_manager.cc(275)] Multiple instances of AudioManager detected</tspan>
<tspan x="10" y="1594">[8113:0403/170152:ERROR:sandbox_linux.cc(343)] InitializeSandbox() called with multiple threads \</tspan>
<tspan x="10" y="1610">in process gpu-process. </tspan>
<tspan x="10" y="1626">[8083:0403/170152:ERROR:browser_gpu_channel_host_factory.cc(131)] Failed to create channel.</tspan>
<tspan x="10" y="1642">&gt; server listening on http-port 54071</tspan>
<tspan x="10" y="1658">2017-04-03T17:01:52.221Z - info: PM2Listener localhost event socket reconnecting</tspan>
<tspan x="10" y="1674">2017-04-03T17:01:52.221Z - info: PM2Listener localhost event socket reconnecting</tspan>
<tspan x="10" y="1690"></tspan>
<tspan x="10" y="1706">browserTest - opened url /home/travis/build/npmdoc/node-npmdoc-pm2-web/tmp/build/apidoc.html</tspan>
<tspan x="10" y="1722"></tspan>
<tspan x="10" y="1738">merging file:///home/travis/build/npmdoc/node-npmdoc-pm2-web/tmp/build/test-report.json to test-\</tspan>
<tspan x="10" y="1754">report</tspan>
<tspan x="10" y="1770">Xlib:  extension "RANDR" missing on display ":99.0".</tspan>
<tspan x="10" y="1786">[8088:0403/170152:WARNING:audio_manager.cc(314)] Multiple instances of AudioManager detected</tspan>
<tspan x="10" y="1802">[8088:0403/170152:WARNING:audio_manager.cc(275)] Multiple instances of AudioManager detected</tspan>
<tspan x="10" y="1818">[8166:0403/170152:ERROR:sandbox_linux.cc(343)] InitializeSandbox() called with multiple threads \</tspan>
<tspan x="10" y="1834">in process gpu-process. </tspan>
<tspan x="10" y="1850">[8088:0403/170152:ERROR:browser_gpu_channel_host_factory.cc(131)] Failed to create channel.</tspan>
<tspan x="10" y="1866"></tspan>
<tspan x="10" y="1882">browserTest - opened url http://127.0.0.1:49928?modeTest=1</tspan>
<tspan x="10" y="1898"></tspan>
<tspan x="10" y="1914">2017-04-03T17:01:52.739Z - info: PM2Listener localhost event socket reconnecting</tspan>
<tspan x="10" y="1930">2017-04-03T17:01:52.739Z - info: PM2Listener localhost event socket reconnecting</tspan>
<tspan x="10" y="1946">2017-04-03T17:01:53.504Z - info: PM2Listener localhost event socket reconnecting</tspan>
<tspan x="10" y="1962">2017-04-03T17:01:53.505Z - info: PM2Listener localhost event socket reconnecting</tspan>
<tspan x="10" y="1978">[8088:0403/170154:INFO:CONSOLE(245)] "----------|-----------|-----------|-----------|-----------\</tspan>
<tspan x="10" y="1994">|</tspan>
<tspan x="10" y="2010">File      |   % Stmts |% Branches |   % Funcs |   % Lines |</tspan>
<tspan x="10" y="2026">----------|-----------|-----------|-----------|-----------|</tspan>
<tspan x="10" y="2042">----------|-----------|-----------|-----------|-----------|</tspan>
<tspan x="10" y="2058">All files |       100 |       100 |       100 |       100 |</tspan>
<tspan x="10" y="2074">----------|-----------|-----------|-----------|-----------|</tspan>
<tspan x="10" y="2090">", source: file:///home/travis/build/npmdoc/node-npmdoc-pm2-web/tmp/electron.15b34c3fd7c0.ce573f\</tspan>
<tspan x="10" y="2106">d67d15c.html (245)</tspan>
<tspan x="10" y="2122">[8088:0403/170154:INFO:CONSOLE(245)] "created coverage file:///tmp/build/coverage.html/index.htm\</tspan>
<tspan x="10" y="2138">l", source: file:///home/travis/build/npmdoc/node-npmdoc-pm2-web/tmp/electron.15b34c3fd7c0.ce573\</tspan>
<tspan x="10" y="2154">fd67d15c.html (245)</tspan>
<tspan x="10" y="2170">2017-04-03T17:01:54.647Z - info: PM2Listener localhost event socket reconnecting</tspan>
<tspan x="10" y="2186">2017-04-03T17:01:54.648Z - info: PM2Listener localhost event socket reconnecting</tspan>
<tspan x="10" y="2202">2017-04-03T17:01:56.363Z - info: PM2Listener localhost event socket reconnecting</tspan>
<tspan x="10" y="2218">2017-04-03T17:01:56.363Z - info: PM2Listener localhost event socket reconnecting</tspan>
<tspan x="10" y="2234">[node test-case 4 of 6 passed] - testCase_buildApp_default</tspan>
<tspan x="10" y="2250">2017-04-03T17:01:58.934Z - info: PM2Listener localhost event socket reconnecting</tspan>
<tspan x="10" y="2266">2017-04-03T17:01:58.935Z - info: PM2Listener localhost event socket reconnecting</tspan>
<tspan x="10" y="2282"></tspan>
<tspan x="10" y="2298">browserTest - created screenCapture file:///home/travis/build/npmdoc/node-npmdoc-pm2-web/tmp/bui\</tspan>
<tspan x="10" y="2314">ld/screenCapture.npmTest.browser._2Fhome_2Ftravis_2Fbuild_2Fnpmdoc_2Fnode-npmdoc-pm2-web_2Ftmp_2\</tspan>
<tspan x="10" y="2330">Fbuild_2Fapidoc.html.png</tspan>
<tspan x="10" y="2346"></tspan>
<tspan x="10" y="2362">browserTest - created screenCapture file:///home/travis/build/npmdoc/node-npmdoc-pm2-web/tmp/bui\</tspan>
<tspan x="10" y="2378">ld/screenCapture.npmTest.browser._2Fhome_2Ftravis_2Fbuild_2Fnpmdoc_2Fnode-npmdoc-pm2-web_2Ftmp_2\</tspan>
<tspan x="10" y="2394">Fbuild_2Fapidoc.html.html</tspan>
<tspan x="10" y="2410"></tspan>
<tspan x="10" y="2426">browserTest - exit-code 0 - /home/travis/build/npmdoc/node-npmdoc-pm2-web/tmp/build/apidoc.html</tspan>
<tspan x="10" y="2442"></tspan>
<tspan x="10" y="2458">[node test-case 5 of 6 passed] - testCase_buildApidoc_default</tspan>
<tspan x="10" y="2474"></tspan>
<tspan x="10" y="2490">browserTest - created screenCapture file:///home/travis/build/npmdoc/node-npmdoc-pm2-web/tmp/bui\</tspan>
<tspan x="10" y="2506">ld/screenCapture.npmTest.browser..png</tspan>
<tspan x="10" y="2522"></tspan>
<tspan x="10" y="2538">browserTest - created screenCapture file:///home/travis/build/npmdoc/node-npmdoc-pm2-web/tmp/bui\</tspan>
<tspan x="10" y="2554">ld/screenCapture.npmTest.browser..html</tspan>
<tspan x="10" y="2570"></tspan>
<tspan x="10" y="2586">browserTest - exit-code 0 - http://127.0.0.1:49928?modeTest=1</tspan>
<tspan x="10" y="2602"></tspan>
<tspan x="10" y="2618"></tspan>
<tspan x="10" y="2634">browserTest - merged coverage from /home/travis/build/npmdoc/node-npmdoc-pm2-web/tmp/coverage.np\</tspan>
<tspan x="10" y="2650">mTest.browser.%2F.json</tspan>
<tspan x="10" y="2666"></tspan>
<tspan x="10" y="2682"></tspan>
<tspan x="10" y="2698">browserTest - merging test-report from /home/travis/build/npmdoc/node-npmdoc-pm2-web/tmp/test-re\</tspan>
<tspan x="10" y="2714">port.npmTest.browser.%2F.json</tspan>
<tspan x="10" y="2730"></tspan>
<tspan x="10" y="2746">[node test-case 6 of 6 passed] - testCase_webpage_default</tspan>
<tspan x="10" y="2762">2017-04-03T17:02:02.799Z - info: PM2Listener localhost event socket reconnecting</tspan>
<tspan x="10" y="2778">2017-04-03T17:02:02.799Z - info: PM2Listener localhost event socket reconnecting</tspan>
<tspan x="10" y="2794">----------------------------|-----------|-----------|-----------|-----------|</tspan>
<tspan x="10" y="2810">File                        |   % Stmts |% Branches |   % Funcs |   % Lines |</tspan>
<tspan x="10" y="2826">----------------------------|-----------|-----------|-----------|-----------|</tspan>
<tspan x="10" y="2842">   node-npmdoc-pm2-web/     |       100 |       100 |       100 |       100 |</tspan>
<tspan x="10" y="2858">      example.js            |       100 |       100 |       100 |       100 |</tspan>
<tspan x="10" y="2874">      lib.npmdoc_pm2_web.js |       100 |       100 |       100 |       100 |</tspan>
<tspan x="10" y="2890">      test.js               |       100 |       100 |       100 |       100 |</tspan>
<tspan x="10" y="2906">----------------------------|-----------|-----------|-----------|-----------|</tspan>
<tspan x="10" y="2922">All files                   |       100 |       100 |       100 |       100 |</tspan>
<tspan x="10" y="2938">----------------------------|-----------|-----------|-----------|-----------|</tspan>
<tspan x="10" y="2954"></tspan>
<tspan x="10" y="2970">created coverage file:///home/travis/build/npmdoc/node-npmdoc-pm2-web/tmp/build/coverage.html/in\</tspan>
<tspan x="10" y="2986">dex.html</tspan>
<tspan x="10" y="3002">PM2Web Shutting down Express</tspan>
<tspan x="10" y="3018">PM2Web Shutting WebSocket</tspan>
<tspan x="10" y="3034">PM2Web Disconnecting from pm2-interface</tspan>
<tspan x="10" y="3050">merging file:///home/travis/build/npmdoc/node-npmdoc-pm2-web/tmp/build/test-report.json to test-\</tspan>
<tspan x="10" y="3066">report</tspan>
<tspan x="10" y="3082"></tspan>
<tspan x="10" y="3098">-------------------------------------------------------</tspan>
<tspan x="10" y="3114">| test-report - buildNpmdoc - node - linux v6.10.1 - 2017-04-03T17:01:15.790Z</tspan>
<tspan x="10" y="3130">|   45357 ms            0 failed        6 passed      |</tspan>
<tspan x="10" y="3146">-------------------------------------------------------</tspan>
<tspan x="10" y="3162"></tspan>
<tspan x="10" y="3178">created test-report file:///home/travis/build/npmdoc/node-npmdoc-pm2-web/tmp/build/test-report.h\</tspan>
<tspan x="10" y="3194">tml</tspan>
<tspan x="10" y="3210"></tspan>
<tspan x="10" y="3226"></tspan>
<tspan x="10" y="3242">npmTest - 0 failed tests</tspan>
<tspan x="10" y="3258"></tspan>
<tspan x="10" y="3274"></tspan>
<tspan x="10" y="3290">[MODE_BUILD=npmTest] - 2017-04-03T17:02:04Z - EXIT_CODE - 0</tspan>
</text>
</svg>
